<?xml version="1.0" encoding="UTF-8" standalone="no"?>
<svg width="50px" height="50px" viewBox="0 0 50 50" version="1.1" xmlns="http://www.w3.org/2000/svg" xmlns:xlink="http://www.w3.org/1999/xlink">
    <!-- Generator: sketchtool 3.8.3 (29802) - http://www.bohemiancoding.com/sketch -->
    <title>E3BF31C1-1036-4334-84E3-58670B065436</title>
    <desc>Created with sketchtool.</desc>
    <defs></defs>
    <g id="Page-1" stroke="none" stroke-width="1" fill="none" fill-rule="evenodd">
        <g id="Desktop-HD-Copy-2" transform="translate(-1104.000000, -926.000000)" fill="#B71C1C">
            <g id="Group-2" transform="translate(1104.000000, 926.000000)">
                <g id="twitter">
                    <path d="M43.75,1.5625 C46.334375,1.5625 48.4375,3.665625 48.4375,6.25 L48.4375,43.75 C48.4375,46.334375 46.334375,48.4375 43.75,48.4375 L6.25,48.4375 C3.665625,48.4375 1.5625,46.334375 1.5625,43.75 L1.5625,6.25 C1.5625,3.665625 3.665625,1.5625 6.25,1.5625 L43.75,1.5625 L43.75,1.5625 Z M43.75,0 L6.25,0 C2.8125,0 0,2.8125 0,6.25 L0,43.75 C0,47.1875 2.8125,50 6.25,50 L43.75,50 C47.1875,50 50,47.1875 50,43.75 L50,6.25 C50,2.8125 47.1875,0 43.75,0 L43.75,0 L43.75,0 Z" id="Shape"></path>
                    <path d="M28.6375,13.375 C26.0390625,14.3203125 24.396875,16.759375 24.584375,19.428125 L24.646875,20.4578125 L23.6078125,20.33125 C19.825,19.8484375 16.51875,18.209375 13.7125,15.4546875 L12.3390625,14.0890625 L11.9859375,15.0984375 C11.2375,17.346875 11.715625,19.7234375 13.275,21.3203125 C14.10625,22.203125 13.91875,22.3296875 12.4859375,21.803125 C11.9875,21.6359375 11.55,21.509375 11.509375,21.571875 C11.3640625,21.7203125 11.8625,23.63125 12.2578125,24.3890625 C12.7984375,25.440625 13.9,26.46875 15.10625,27.0796875 L16.125,27.5625 L14.9203125,27.5828125 C13.75625,27.5828125 13.715625,27.603125 13.840625,28.046875 C14.25625,29.4125 15.8984375,30.8640625 17.728125,31.49375 L19.0171875,31.934375 L17.8953125,32.6078125 C16.2328125,33.5765625 14.278125,34.121875 12.3234375,34.1625 C11.3875,34.1828125 10.61875,34.2671875 10.61875,34.33125 C10.61875,34.540625 13.15625,35.7171875 14.63125,36.18125 C19.059375,37.546875 24.31875,36.9578125 28.26875,34.625 C31.075,32.9640625 33.88125,29.6640625 35.1921875,26.46875 C35.9,24.7671875 36.60625,21.65625 36.60625,20.165625 C36.60625,19.1984375 36.66875,19.071875 37.8328125,17.9171875 C38.51875,17.2453125 39.1625,16.509375 39.2875,16.2984375 C39.4953125,15.8984375 39.4734375,15.8984375 38.4140625,16.25625 C36.646875,16.8875 36.396875,16.803125 37.271875,15.8578125 C37.915625,15.1859375 38.6859375,13.965625 38.6859375,13.609375 C38.6859375,13.546875 38.375,13.6515625 38.0203125,13.840625 C37.646875,14.0515625 36.815625,14.3671875 36.190625,14.5546875 L35.0625,14.9109375 L34.04375,14.2171875 C33.4828125,13.8390625 32.69375,13.41875 32.2765625,13.2921875 C31.215625,12.996875 29.59375,13.0390625 28.6375,13.375 L28.6375,13.375 Z" id="Shape"></path>
                </g>
            </g>
        </g>
    </g>
</svg>