<?xml version="1.0" standalone="no"?>
<!DOCTYPE svg PUBLIC "-//W3C//DTD SVG 20010904//EN"
 "http://www.w3.org/TR/2001/REC-SVG-20010904/DTD/svg10.dtd">
<svg version="1.0" xmlns="http://www.w3.org/2000/svg"
 width="1200.000000pt" height="1200.000000pt" viewBox="0 0 1200.000000 1200.000000"
 preserveAspectRatio="xMidYMid meet">
<metadata>
Created by potrace 1.11, written by Peter Selinger 2001-2013
</metadata>
<g transform="translate(0.000000,1200.000000) scale(0.100000,-0.100000)"
fill="#000000" stroke="none">
<path d="M7687 11174 c-1 -1 -65 -4 -142 -8 -78 -3 -150 -8 -160 -10 -11 -2
-51 -7 -90 -10 -74 -8 -92 -10 -165 -21 -51 -8 -46 -7 -160 -29 -289 -55 -697
-177 -1000 -301 -181 -74 -486 -249 -571 -326 -14 -13 -47 -42 -74 -64 -100
-81 -255 -239 -301 -305 -51 -75 -66 -137 -44 -189 26 -63 156 -94 266 -63 53
15 142 73 279 181 229 182 431 296 784 448 222 94 483 183 616 209 29 6 54 11
105 23 25 5 59 12 75 15 43 8 213 34 260 41 23 3 52 7 65 10 14 3 56 7 95 11
38 3 86 7 105 9 213 24 763 24 990 0 113 -12 120 -13 255 -45 452 -105 676
-183 869 -304 91 -57 234 -207 318 -332 46 -70 149 -254 153 -274 1 -3 14 -32
29 -65 113 -244 254 -706 282 -920 3 -27 8 -59 10 -70 19 -92 25 -401 11 -530
-19 -181 -66 -425 -141 -745 -67 -279 -177 -641 -370 -1207 -13 -40 -21 -41
-43 -5 -38 61 -164 198 -248 270 -135 116 -427 286 -578 336 -99 34 -277 70
-402 82 -33 3 -73 7 -90 9 -46 7 -270 18 -365 19 -142 1 -350 -23 -515 -60
-38 -8 -81 -17 -95 -20 -60 -12 -310 -120 -355 -153 -5 -5 -50 -30 -100 -56
-168 -90 -324 -189 -470 -299 -130 -97 -483 -383 -575 -465 -285 -253 -667
-632 -925 -915 -49 -54 -99 -108 -110 -120 -11 -12 -45 -50 -75 -86 -30 -36
-57 -67 -60 -70 -3 -3 -28 -32 -55 -65 -28 -33 -52 -62 -55 -65 -9 -8 -238
-296 -294 -370 -28 -36 -54 -69 -59 -75 -4 -5 -76 -98 -158 -205 -398 -515
-434 -557 -714 -835 -359 -356 -496 -483 -755 -698 -138 -115 -563 -407 -785
-540 l-110 -66 -64 14 c-226 48 -482 39 -668 -24 -131 -44 -214 -109 -315
-244 -68 -91 -71 -151 -13 -272 52 -107 188 -239 291 -279 94 -38 311 -42 524
-11 257 38 589 123 688 176 57 30 298 180 317 196 6 5 17 12 25 16 42 19 514
340 830 565 120 84 308 226 365 273 88 73 422 355 431 364 6 5 37 33 70 60 54
47 95 82 190 164 55 47 485 413 508 431 10 8 24 20 30 26 47 44 463 370 569
446 219 156 323 215 762 433 394 194 623 285 885 349 210 51 339 59 705 43
161 -7 240 -13 305 -23 19 -3 44 -7 55 -8 295 -42 612 -227 746 -436 35 -54
120 -221 174 -340 77 -171 80 -176 110 -250 15 -36 33 -78 40 -95 29 -65 152
-385 295 -765 15 -41 118 -327 229 -636 241 -676 311 -865 346 -933 39 -78
139 -171 240 -221 84 -43 85 -43 137 -31 65 14 125 47 152 84 15 21 20 42 20
85 -1 55 -12 291 -19 382 -1 25 -6 99 -9 165 -4 66 -9 140 -11 165 -2 25 -7
92 -10 150 -3 58 -8 125 -10 150 -3 25 -7 81 -10 125 -3 44 -7 100 -9 125 -2
25 -7 86 -10 135 -4 50 -9 108 -11 130 -2 22 -7 72 -10 110 -3 39 -8 88 -10
110 -5 48 -14 144 -19 205 -2 25 -7 69 -10 98 -3 29 -8 76 -11 105 -3 28 -8
68 -10 87 -2 19 -7 60 -11 90 -3 30 -7 64 -9 75 -1 11 -5 49 -9 85 -4 36 -19
139 -33 230 -13 91 -26 176 -28 190 -6 40 -15 94 -20 110 -2 8 -6 33 -10 55
-9 66 -25 157 -35 205 -5 25 -12 57 -14 72 -3 15 -12 63 -20 105 -19 89 -24
118 -31 153 -9 48 -13 66 -40 175 -42 173 -42 170 -77 295 -72 257 -206 616
-320 858 l-30 63 70 177 c113 283 192 505 280 792 49 158 153 567 167 653 3
18 10 52 15 77 5 25 14 72 20 105 6 33 12 71 15 85 5 29 32 224 40 289 21 176
27 479 12 611 -4 36 -9 88 -12 115 -7 71 -14 118 -31 220 -8 50 -17 104 -20
120 -4 30 -22 111 -51 235 -18 78 -88 297 -115 360 -51 120 -134 276 -199 375
-40 61 -75 112 -79 115 -3 3 -13 14 -21 26 -30 45 -108 133 -189 215 -124 126
-250 202 -475 289 -60 23 -119 46 -130 50 -11 5 -54 19 -95 30 -41 12 -95 28
-120 36 -116 35 -444 103 -622 129 -96 13 -134 18 -243 30 -100 11 -142 14
-270 21 -121 6 -423 12 -428 8z"/>
<path d="M4635 7668 c18 -57 30 -471 16 -560 -7 -41 -28 -99 -63 -168 l-53
-105 -130 -6 c-149 -7 -243 -25 -387 -75 -270 -94 -368 -188 -561 -540 -37
-67 -67 -126 -67 -131 0 -5 -57 -37 -126 -72 l-126 -62 7 -102 c4 -56 8 -104
10 -107 2 -3 6 -30 10 -60 18 -140 78 -321 142 -425 54 -87 100 -127 223 -193
142 -76 375 -157 515 -178 28 -4 57 -9 65 -11 28 -7 245 -6 315 1 185 19 436
86 567 152 162 81 281 251 334 474 37 158 47 252 47 450 1 223 -8 281 -63 411
-59 140 -55 121 -75 354 -13 160 -56 325 -116 449 -47 98 -50 103 -116 186
-87 111 -174 194 -290 278 -74 55 -85 60 -78 40z"/>
</g>
</svg>
