<?xml version="1.0" encoding="UTF-8" standalone="no"?>
<svg width="101px" height="103px" viewBox="0 0 101 103" version="1.1" xmlns="http://www.w3.org/2000/svg" xmlns:xlink="http://www.w3.org/1999/xlink">
    <!-- Generator: sketchtool 3.8.3 (29802) - http://www.bohemiancoding.com/sketch -->
    <title>FD140245-3E06-48EA-BE2B-7E677218F4D8</title>
    <desc>Created with sketchtool.</desc>
    <defs></defs>
    <g id="Page-1" stroke="none" stroke-width="1" fill="none" fill-rule="evenodd" stroke-linecap="square">
        <g id="Desktop-HD-Copy-5" transform="translate(-1051.000000, -341.000000)" stroke="#FFFFFF" stroke-width="2">
            <g id="Group-3" transform="translate(272.000000, 342.000000)">
                <g id="cat" transform="translate(780.000000, 0.000000)">
                    <path d="M21.1166041,62.0423546 C23.7173253,63.625747 26.3926737,64.2008987 27.9780297,64.3354082 C30.5983078,64.5577255 34.324344,63.6716211 36.0035914,62.7651918 C40.4667388,60.3560604 39.1187556,51.3248456 39.1187556,51.3248456 L38.1658166,49.0719198 C37.8907011,47.6369007 38.0660418,45.1100547 36.921123,42.5795048 C35.7762041,40.048955 33.2829762,38.2796535 33.2829762,38.2796535 C33.2829762,38.2796535 33.5592785,41.649922 33.2829764,43.109449 C33.0588318,44.2934615 31.781636,46.2102719 31.781636,46.2102719 C31.781636,46.2102719 30.74853,45.906981 28.9355675,46.2102721 C27.5130602,46.4482438 25.350918,47.2202728 24.5742195,47.7263712 C22.6214855,48.9987765 20.6236692,53.4808254 20.6236692,53.4808254 L18.3667724,54.5944385 C18.3667724,54.5944385 18.5506256,60.4801145 21.1166041,62.0423546 Z" id="Line"></path>
                    <path d="M58.0742675,47.3855131 C58.0742675,47.3855131 52.9229303,50.9306701 47.8791469,56.0891066 C42.042164,62.0587732 34.9209989,70.4303353 30.1115112,76.1657384 C21.1461069,86.8571489 11.3408554,93.008258 11.3408554,93.008258" id="Line"></path>
                    <path d="M90.5872193,50.3454231 C90.5872193,50.3454231 95.693827,39.0158977 96.6632744,28.0488223 C96.8619232,25.8015672 96.8921335,24.7890874 96.6632744,22.6303121 C96.2920061,19.1282224 95.6050453,15.2349332 94.101156,11.9321181 C92.7772988,9.02468645 90.703769,6.57481834 89.2818058,5.25215625 C85.5294169,1.76181125 69.9335892,-1.88129275 57.6686062,1.24010944 C52.831212,2.47121207 47.5980318,4.24774296 44.3788854,6.87398072 C40.7744977,9.81450531 39.1135372,11.8883704 41.1287736,12.126245 C43.0311379,12.3507964 44.2949424,10.49439 46.7966507,8.85914983 C49.6592472,6.9880153 54.5211141,4.89773932 57.6686057,4.03404006 C58.6531558,3.7638709 62.4177276,2.8309132 67.0756472,2.53777983 C70.9635793,2.29310351 76.0890116,2.4335195 77.9168886,2.95483602 C78.8589643,3.22351908 81.7252692,3.64026966 84.5777544,4.83513487 C85.7499778,5.32616246 86.7328792,5.75686564 87.6902994,6.425856 C88.6724631,7.11213566 89.2260287,7.93131466 89.3782392,8.0773497 C92.1359161,10.7231433 95.9283423,20.3994811 95.6235272,26.9184643 C95.3113243,33.5954476 91.5677324,44.8822291 89.972652,49.0304683" id="Line"></path>
                    <path d="M96.5828061,99.6349576 C96.5828061,99.6349576 93.329094,99.0703002 92.2443814,97.5679219 C91.1662462,96.0746535 85.0947681,72.0894659 81.5974871,68.7281469 C77.3723457,64.6672641 72.976413,65.1308763 69.0100614,64.8968958 C63.9363161,64.5975887 58.4222484,66.9203186 50.3149614,71.3520114 C44.6485761,74.4494322 32.4208481,86.0729821 27.5147091,89.6233291 C19.1159477,95.7011261 14.1623489,98.5543896 14.1623489,98.5543896 C14.1623489,98.5543896 7.24115512,100.85464 3.34813408,100.110973 C2.21593108,99.8946935 0.797535126,98.3864813 0.385631431,97.5679209 C-0.233215376,96.3381104 0.0638696864,95.9733422 0.385631421,95.5216591 C0.707393155,95.0699761 1.45475267,93.813036 3.34813401,93.1852882 C6.72968637,92.0641396 10.4553635,93.1852887 10.4553635,93.1852887" id="Line"></path>
                    <path d="M98.3242223,99.7878475 C98.8318893,99.7878475 98.6740099,88.0726567 96.5542182,75.2785462 C95.3194634,67.8261206 93.397381,60.8566816 91.8359731,56.0841621 C91.3316251,54.5425978 90.7714369,51.6587519 89.378239,49.6860671 C87.5519775,47.1001901 84.7806,45.5126336 83.7169805,44.8614437 C80.8329957,43.0957541 77.2074973,42.4864052 74.9541077,42.2794009 C72.6588629,42.0685516 68.9539152,42.0596824 65.8722701,43.1501946 C61.2712735,44.7783649 57.839977,47.5049829 57.839977,47.5049829" id="Line"></path>
                </g>
            </g>
        </g>
    </g>
</svg>