<?xml version="1.0" encoding="UTF-8" standalone="no"?>
<svg width="50px" height="50px" viewBox="0 0 50 50" version="1.1" xmlns="http://www.w3.org/2000/svg" xmlns:xlink="http://www.w3.org/1999/xlink">
    <!-- Generator: sketchtool 3.8.3 (29802) - http://www.bohemiancoding.com/sketch -->
    <title>3C2A963D-027E-4B2F-AF9F-1E8EC538331A</title>
    <desc>Created with sketchtool.</desc>
    <defs></defs>
    <g id="Page-1" stroke="none" stroke-width="1" fill="none" fill-rule="evenodd">
        <g id="Desktop-HD-Copy-5" transform="translate(-1252.000000, -926.000000)" fill="#FFFFFF">
            <g id="Group-2" transform="translate(1104.000000, 926.000000)">
                <g id="linkedin" transform="translate(148.000000, 0.000000)">
                    <path d="M43.75,1.5625 C46.334375,1.5625 48.4375,3.665625 48.4375,6.25 L48.4375,43.75 C48.4375,46.334375 46.334375,48.4375 43.75,48.4375 L6.25,48.4375 C3.665625,48.4375 1.5625,46.334375 1.5625,43.75 L1.5625,6.25 C1.5625,3.665625 3.665625,1.5625 6.25,1.5625 L43.75,1.5625 L43.75,1.5625 Z M43.75,0 L6.25,0 C2.8125,0 0,2.8125 0,6.25 L0,43.75 C0,47.1875 2.8125,50 6.25,50 L43.75,50 C47.1875,50 50,47.1875 50,43.75 L50,6.25 C50,2.8125 47.1875,0 43.75,0 L43.75,0 L43.75,0 Z" id="Shape"></path>
                    <path d="M37.9671875,37.3765625 L37.9671875,27.7875 C37.9671875,22.65 35.225,20.259375 31.5671875,20.259375 C28.615625,20.259375 27.29375,21.8828125 26.5578125,23.021875 L26.5578125,20.6515625 L20.9984375,20.6515625 C21.071875,22.221875 20.9984375,37.3765625 20.9984375,37.3765625 L26.5578125,37.3765625 L26.5578125,28.0359375 C26.5578125,27.5375 26.59375,27.0375 26.740625,26.68125 C27.1421875,25.6828125 28.05625,24.6484375 29.5921875,24.6484375 C31.6046875,24.6484375 32.409375,26.18125 32.409375,28.4296875 L32.409375,37.378125 L37.9671875,37.3765625 L37.9671875,37.3765625 L37.9671875,37.3765625 Z M15.140625,18.36875 C17.078125,18.36875 18.2859375,17.0828125 18.2859375,15.478125 C18.25,13.8375 17.078125,12.5890625 15.1765625,12.5890625 C13.275,12.5890625 12.0328125,13.8375 12.0328125,15.478125 C12.0328125,17.084375 13.2390625,18.36875 15.10625,18.36875 L15.140625,18.36875 L15.140625,18.36875 Z M17.9203125,37.3765625 L17.9203125,20.6515625 L12.3625,20.6515625 L12.3625,37.3765625 L17.9203125,37.3765625 L17.9203125,37.3765625 Z" id="Shape"></path>
                </g>
            </g>
        </g>
    </g>
</svg>